<?xml version="1.0" encoding="utf-8"?>
<!-- Generator: Adobe Illustrator 24.3.0, SVG Export Plug-In . SVG Version: 6.00 Build 0)  -->
<svg version="1.1" id="Layer_1" xmlns="http://www.w3.org/2000/svg" xmlns:xlink="http://www.w3.org/1999/xlink" x="0px" y="0px"
	 viewBox="0 0 50 50" style="enable-background:new 0 0 50 50;" xml:space="preserve">
<style type="text/css">
	.st0{fill:#275EFC;}
</style>
<g>
	<path class="st0" d="M33.5,12.9c-0.1-1.4-0.8-2.8-1.8-3.7c-1.1-1-2.4-1.4-3.9-1.3C26.4,8,25,8.7,24.1,9.7l-3,3.4
		c-1,1.1-1.4,2.4-1.3,3.9c0.1,1,0.4,1.9,1,2.7l-1.1,1.3c-0.9-0.5-1.8-0.7-2.9-0.6c-1.4,0.1-2.6,0.7-3.7,1.8l0,0l-3,3.4
		c-0.9,1.1-1.4,2.5-1.3,3.9c0.1,1.4,0.8,2.8,1.8,3.7c1.1,1,2.4,1.4,3.9,1.3c1.3-0.1,2.6-0.8,3.7-1.8l0,0l3-3.4
		c0.9-1.1,1.4-2.5,1.3-3.9c-0.1-1-0.4-1.9-1-2.7l1.1-1.3c0.9,0.5,1.8,0.7,2.9,0.6c1.3-0.1,2.6-0.8,3.7-1.8l0,0l3-3.4
		C33.2,15.7,33.6,14.4,33.5,12.9z M20,25.6c0.1,0.7-0.2,1.5-0.7,2.1l-3,3.4c-0.5,0.6-1.2,0.9-2,1c-0.7,0.1-1.5-0.2-2.1-0.7
		c-0.6-0.5-0.9-1.2-1-2c-0.1-0.7,0.2-1.5,0.7-2.1l3-3.4c0.5-0.6,1.2-0.9,2-1c0.4,0,0.7,0,1,0.1l-2.4,2.7c-0.5,0.5-0.4,1.3,0.1,1.8h0
		c0.5,0.5,1.3,0.4,1.8-0.1l2.3-2.7C19.9,25,20,25.3,20,25.6z M30.3,15.1l-3,3.4c-0.5,0.6-1.2,0.9-2,1c-0.3,0-0.6,0-1-0.1l2.4-2.7
		c0.5-0.5,0.4-1.3-0.1-1.8h0c-0.5-0.5-1.3-0.4-1.8,0.1l-2.3,2.7c-0.1-0.3-0.2-0.6-0.2-0.9c-0.1-0.7,0.2-1.5,0.7-2.1l3-3.4
		c0.5-0.6,1.2-0.9,2-1c0.7-0.1,1.5,0.2,2.1,0.7c0.6,0.5,0.9,1.2,1,2C31.1,13.8,30.8,14.6,30.3,15.1z"/>
	<g>
		<path class="st0" d="M32.5,42.9H10.2c-4.1,0-7.4-3.3-7.4-7.4v-28C2.8,3.3,6.1,0,10.2,0h22.3c4.1,0,7.4,3.3,7.4,7.4v28
			C39.9,39.6,36.6,42.9,32.5,42.9z M10.2,3.2C7.9,3.2,6,5.1,6,7.4v28c0,2.3,1.9,4.2,4.2,4.2h22.3c2.3,0,4.2-1.9,4.2-4.2v-28
			c0-2.3-1.9-4.2-4.2-4.2H10.2z"/>
	</g>
	<g>
		<path class="st0" d="M36.3,50H17.9c-0.9,0-1.6-0.7-1.6-1.6s0.7-1.6,1.6-1.6h18.4c4.5,0,8.1-3.7,8.1-8.1V19.5
			c0-0.9,0.7-1.6,1.6-1.6s1.6,0.7,1.6,1.6v19.1C47.6,44.9,42.5,50,36.3,50z"/>
	</g>
</g>
</svg>
