<?xml version="1.0" encoding="utf-8"?>
<!-- Generator: Adobe Illustrator 24.3.0, SVG Export Plug-In . SVG Version: 6.00 Build 0)  -->
<svg version="1.1" id="Layer_1" xmlns="http://www.w3.org/2000/svg" xmlns:xlink="http://www.w3.org/1999/xlink" x="0px" y="0px"
	 viewBox="0 0 50 50" style="enable-background:new 0 0 50 50;" xml:space="preserve">
<style type="text/css">
	.st0{fill:#868791;}
</style>
<path class="st0" d="M33.3,13.4c-0.1-1.4-0.8-2.8-1.8-3.7c-1.1-1-2.4-1.4-3.9-1.3c-1.4,0.1-2.8,0.8-3.7,1.8l-3,3.4
	c-1,1.1-1.4,2.4-1.3,3.9c0.1,1,0.4,1.9,1,2.7l-1.1,1.3c-0.9-0.5-1.8-0.7-2.9-0.6c-1.4,0.1-2.6,0.7-3.7,1.8l0,0l-3,3.4
	C9,27.2,8.5,28.6,8.6,30c0.1,1.4,0.8,2.8,1.8,3.7c1.1,1,2.4,1.4,3.9,1.3c1.3-0.1,2.6-0.8,3.7-1.8l0,0l3-3.4c0.9-1.1,1.4-2.5,1.3-3.9
	c-0.1-1-0.4-1.9-1-2.7l1.1-1.3c0.9,0.5,1.8,0.7,2.9,0.6c1.3-0.1,2.6-0.8,3.7-1.8l0,0l3-3.4C33,16.2,33.4,14.9,33.3,13.4z M19.8,26.1
	c0.1,0.7-0.2,1.5-0.7,2.1l-3,3.4c-0.5,0.6-1.2,0.9-2,1c-0.7,0.1-1.5-0.2-2.1-0.7s-0.9-1.2-1-2c-0.1-0.7,0.2-1.5,0.7-2.1l3-3.4
	c0.5-0.6,1.2-0.9,2-1c0.4,0,0.7,0,1,0.1l-2.4,2.7c-0.5,0.5-0.4,1.3,0.1,1.8l0,0c0.5,0.5,1.3,0.4,1.8-0.1l2.3-2.7
	C19.7,25.5,19.8,25.8,19.8,26.1z M30.1,15.6l-3,3.4c-0.5,0.6-1.2,0.9-2,1c-0.3,0-0.6,0-1-0.1l2.4-2.7c0.5-0.5,0.4-1.3-0.1-1.8l0,0
	c-0.5-0.5-1.3-0.4-1.8,0.1l-2.3,2.7c-0.1-0.3-0.2-0.6-0.2-0.9c-0.1-0.7,0.2-1.5,0.7-2.1l3-3.4c0.5-0.6,1.2-0.9,2-1
	c0.7-0.1,1.5,0.2,2.1,0.7s0.9,1.2,1,2C30.9,14.3,30.6,15.1,30.1,15.6z"/>
<g>
	<path class="st0" d="M32.3,43.4H10c-4.1,0-7.4-3.3-7.4-7.4V8c0-4.2,3.3-7.5,7.4-7.5h22.3c4.1,0,7.4,3.3,7.4,7.4v28
		C39.7,40.1,36.4,43.4,32.3,43.4z M10,3.7c-2.3,0-4.2,1.9-4.2,4.2v28c0,2.3,1.9,4.2,4.2,4.2h22.3c2.3,0,4.2-1.9,4.2-4.2v-28
		c0-2.3-1.9-4.2-4.2-4.2L10,3.7z"/>
</g>
<g>
	<path class="st0" d="M36.1,50.5H17.7c-0.9,0-1.6-0.7-1.6-1.6s0.7-1.6,1.6-1.6h18.4c4.5,0,8.1-3.7,8.1-8.1V20c0-0.9,0.7-1.6,1.6-1.6
		s1.6,0.7,1.6,1.6v19.1C47.4,45.4,42.3,50.5,36.1,50.5z"/>
</g>
</svg>
