<?xml version="1.0" encoding="utf-8"?>
<!-- Generator: Adobe Illustrator 24.3.0, SVG Export Plug-In . SVG Version: 6.00 Build 0)  -->
<svg version="1.1" id="Layer_1" xmlns="http://www.w3.org/2000/svg" xmlns:xlink="http://www.w3.org/1999/xlink" x="0px" y="0px"
	 viewBox="0 0 50 50" style="enable-background:new 0 0 50 50;" xml:space="preserve">
<style type="text/css">
	.st0{fill: #0086c6;}
</style>
<path class="st0" d="M42.7,18.8h-3.1v-4.2C39.6,6.5,33,0,25,0S10.4,6.5,10.4,14.6v4.2H7.3c-0.6,0-1,0.5-1,1v26
	c0,2.3,1.9,4.2,4.2,4.2h29.2c2.3,0,4.2-1.9,4.2-4.2v-26C43.8,19.2,43.3,18.8,42.7,18.8z M27.5,34.6l0.7,5.9c0,0.3-0.1,0.6-0.3,0.8
	c-0.2,0.2-0.5,0.3-0.8,0.3h-4.2c-0.3,0-0.6-0.1-0.8-0.3c-0.2-0.2-0.3-0.5-0.3-0.8l0.7-5.9c-1.1-0.8-1.7-2-1.7-3.4
	c0-2.3,1.9-4.2,4.2-4.2s4.2,1.9,4.2,4.2C29.2,32.6,28.5,33.8,27.5,34.6z M33.3,18.8H16.7v-4.2c0-4.6,3.7-8.3,8.3-8.3
	s8.3,3.7,8.3,8.3V18.8z"/>
</svg>
