<?xml version="1.0" encoding="utf-8"?>
<!-- Generator: Adobe Illustrator 24.3.0, SVG Export Plug-In . SVG Version: 6.00 Build 0)  -->
<svg version="1.1" id="Layer_1" xmlns="http://www.w3.org/2000/svg" xmlns:xlink="http://www.w3.org/1999/xlink" x="0px" y="0px"
	 viewBox="0 0 50 50" style="enable-background:new 0 0 50 50;" xml:space="preserve">
<style type="text/css">
	.st0{fill:#6A6A6A;}
</style>
<g>
	<path class="st0" d="M44.3,12.2L32.6,0.5c-0.3-0.3-0.6-0.4-1-0.4H11.1c-2.4,0-4.4,2-4.4,4.4v41.1c0,2.4,2,4.4,4.4,4.4h29.2
		c2.4,0,4.4-2,4.4-4.4V13.3C44.7,12.9,44.5,12.5,44.3,12.2L44.3,12.2z M33,5.1l6.7,6.7h-5.2c-0.8,0-1.5-0.7-1.5-1.5V5.1z M40.3,47.1
		H11.1c-0.8,0-1.5-0.7-1.5-1.5V4.5c0-0.8,0.7-1.5,1.5-1.5h19v7.3c0,2.4,2,4.4,4.4,4.4h7.3v30.9C41.8,46.4,41.1,47.1,40.3,47.1
		L40.3,47.1z M40.3,47.1"/>
	<path class="st0" d="M34.5,20.8H16.9c-0.8,0-1.5,0.7-1.5,1.5c0,0.8,0.7,1.5,1.5,1.5h17.5c0.8,0,1.5-0.7,1.5-1.5
		C35.9,21.4,35.3,20.8,34.5,20.8L34.5,20.8z M34.5,20.8"/>
	<path class="st0" d="M34.5,26.6H16.9c-0.8,0-1.5,0.7-1.5,1.5c0,0.8,0.7,1.5,1.5,1.5h17.5c0.8,0,1.5-0.7,1.5-1.5
		C35.9,27.3,35.3,26.6,34.5,26.6L34.5,26.6z M34.5,26.6"/>
	<path class="st0" d="M34.5,32.5H16.9c-0.8,0-1.5,0.7-1.5,1.5c0,0.8,0.7,1.5,1.5,1.5h17.5c0.8,0,1.5-0.7,1.5-1.5
		C35.9,33.1,35.3,32.5,34.5,32.5L34.5,32.5z M34.5,32.5"/>
	<path class="st0" d="M28.6,38.3H16.9c-0.8,0-1.5,0.7-1.5,1.5s0.7,1.5,1.5,1.5h11.7c0.8,0,1.5-0.7,1.5-1.5S29.4,38.3,28.6,38.3
		L28.6,38.3z M28.6,38.3"/>
</g>
</svg>
