<?xml version="1.0" encoding="utf-8"?>
<!-- Generator: Adobe Illustrator 24.3.0, SVG Export Plug-In . SVG Version: 6.00 Build 0)  -->
<svg version="1.1" id="Layer_1" xmlns="http://www.w3.org/2000/svg" xmlns:xlink="http://www.w3.org/1999/xlink" x="0px" y="0px"
	 viewBox="0 0 50 50" style="enable-background:new 0 0 50 50;" xml:space="preserve">
<style type="text/css">
	.st0{fill:#888888;}
</style>
<g>
	<path class="st0" d="M44,1.9H31.8C31.7,1,30.9,0,30,0H20c-0.9,0-1.7,1-1.7,1.9H6c-1,0-1.8,0.8-1.8,1.8V7c0,1,0.8,1.8,1.8,1.8H44
		c1,0,1.8-0.8,1.8-1.8V3.6C45.8,2.7,45,1.9,44,1.9L44,1.9z M44,1.9"/>
	<path class="st0" d="M9,14.4c-0.6,0-1.1,0.5-1.1,1.1v33.9C7.9,50,8.5,50,8.6,50h32.7c0.3,0,0.8,0,0.8-0.6V15.5
		c0-0.6-0.5-1.1-1.1-1.1H9z M20.7,39.2c0,1.1-0.9,1.9-1.9,1.9c-1.1,0-1.9-0.9-1.9-1.9V23c0-1.1,0.9-1.9,1.9-1.9
		c1.1,0,1.9,0.9,1.9,1.9V39.2z M33.1,39.2c0,1.1-0.9,1.9-1.9,1.9c-1.1,0-1.9-0.9-1.9-1.9V23c0-1.1,0.9-1.9,1.9-1.9
		c1.1,0,1.9,0.9,1.9,1.9V39.2z M33.1,39.2"/>
</g>
</svg>
