<?xml version="1.0" encoding="utf-8"?>
<!-- Generator: Adobe Illustrator 24.3.0, SVG Export Plug-In . SVG Version: 6.00 Build 0)  -->
<svg version="1.1" id="Layer_1" xmlns="http://www.w3.org/2000/svg" xmlns:xlink="http://www.w3.org/1999/xlink" x="0px" y="0px"
	 viewBox="0 0 50 50" style="enable-background:new 0 0 50 50;" xml:space="preserve">
<style type="text/css">
	.st0{fill:#5F5F5F;}
</style>
<path class="st0" d="M49.4,23.6C49.4,23.6,49.4,23.6,49.4,23.6L39.2,13.5c-0.8-0.8-2-0.8-2.8,0c-0.8,0.8-0.8,2,0,2.8l6.9,6.8H2
	c-1.1,0-2,0.9-2,2c0,1.1,0.9,2,2,2h41.4l-6.9,6.8c-0.8,0.8-0.8,2,0,2.8c0.8,0.8,2,0.8,2.8,0l10.2-10.2c0,0,0,0,0,0
	C50.2,25.6,50.2,24.4,49.4,23.6L49.4,23.6z M49.4,23.6"/>
</svg>
