<svg version="1.1" id="Layer_1" xmlns="http://www.w3.org/2000/svg" xmlns:xlink="http://www.w3.org/1999/xlink" x="0px" y="0px" viewBox="-49 141 512 512" style="enable-background:new -49 141 512 512;" xml:space="preserve">
<radialGradient id="SVGID_1_" cx="161.1172" cy="279.728" r="424.4726" gradientTransform="matrix(0.0827 0.9966 -0.4125 0.0342 263.1719 109.5841)" gradientUnits="userSpaceOnUse">
	<stop offset="0.0066" style="stop-color:#FECE4D"/>
	<stop offset="0.3021" style="stop-color:#FECC4A"/>
	<stop offset="0.508" style="stop-color:#FEC741"/>
	<stop offset="0.6866" style="stop-color:#FEBF32"/>
	<stop offset="0.8486" style="stop-color:#FFB31C"/>
	<stop offset="1" style="stop-color:#FFA300"/>
</radialGradient>
<path style="fill:url(#SVGID_1_);" d="M374.013,436.655c-14.388-18.064-25.357-37.879-31.501-60.185  c-5.949-21.596-11.285-43.363-17.435-64.9c-7.629-26.714-22.375-47.881-48.081-60.562c-7.336-3.619-14.513-8.344-20.269-14.066  c-3.12-3.102-4.7-9.547-4.189-14.177l5.644-35.833c0,0,6.046-31.981,1.789-42.623c-80.879-9.578-187.298,4.257-201.133,8.514  c-13.835,4.257,4.312,40.57,4.312,40.57s0.002,0.004,0.002,0.004c1.169,8.529,2.741,17.021,4.561,25.429  c4.07,18.805,6.062,37.01-3.583,55.207c-4.257,8.03-5.748,17.655-7.769,26.718c-6.306,28.287-7.287,57.015-3.791,85.616  c3.474,28.42,8.929,43.551,40.4,51.584c9.397,2.399,18.474,6.767,27.075,11.392c11.243,6.045,23.147,8.514,35.059,5.406  c8.546-2.229,14.378-0.251,20.89,4.512c13.429,9.824,26.483,9.474,40.081-0.22c1.847-1.317,3.934-2.298,7.825-4.536  c0.536,5.52,1.105,8.865,1.149,12.216c0.479,37.014,0.5,74.04,1.465,111.041c0.44,16.88,1.744,33.867,4.422,50.522  c2.343,14.573,14.688,24.173,28.086,24.694c13.567,0.527,25.717-8.121,29.713-22.67c1.883-6.859,1.869-14.377,1.861-21.596  c-0.064-60.196-0.341-120.393-0.48-180.589c-0.006-2.513,0.717-5.028,1.1-7.542c0.843-0.169,1.687-0.337,2.53-0.506  c1.178,3.193,2.69,6.305,3.48,9.591c6.615,27.531,32.712,48.482,58.236,47.025c11.41-0.651,19.795-5.532,24.984-15.651  C385.547,451.089,379.626,443.702,374.013,436.655z"/>
</svg>